# xmcd
#
# Track frame offsets:
#	150
#	16717
#	31052
#	49897
#	68347
#	84302
#	99510
#	116402
#	129395
#	142145
#	158385
#	175417
#	191745
#	209557
#	223015
#	237857
#
# Disc length: 3366 seconds
#
# Revision: 3
# Processed by: cddbd v1.5.2PL0 Copyright (c) Steve Scherf et al.
# Submitted via: audiograbber 1.83.01
#
DISCID=d20d2410
DTITLE=Various Artist - Super Country '94
DYEAR=1994
DGENRE=Country
TTITLE0=Joe Diffie - In My Own Back Yard
TTITLE1=Ricky van Shelton - Where Was I
TTITLE2=Mark Chesnutt - Almost Goodbye
TTITLE3=Suzy Bogguss - Hey Cinderella
TTITLE4=Jim Witter - Sweet Sweet Poison
TTITLE5=The Goods - That's What Highways Are For
TTITLE6=Gary Fjellgaard - Islanders
TTITLE7=Billy Dean - I'm Not Built That Way
TTITLE8=Alabama - I'm in a Hurry (And I Don't Know Why)
TTITLE9=McBride and The Ride - Hurry Sundown
TTITLE10=Tanya Tucker - We Don't Have to Do This
TTITLE11=Ian Tyson - Alcohol in the Bloodstream
TTITLE12=Joan Kennedy - Dream On
TTITLE13=Doug Stone - Warning Labels
TTITLE14=Jason McCoy - Your Mamma Warned You About Me
TTITLE15=Tracy Byrd - Why Don't That Telephone Ring
EXTD=
EXTT0=
EXTT1=
EXTT2=
EXTT3=
EXTT4=
EXTT5=
EXTT6=
EXTT7=
EXTT8=
EXTT9=
EXTT10=
EXTT11=
EXTT12=
EXTT13=
EXTT14=
EXTT15=
PLAYORDER=
